<svg xmlns="http://www.w3.org/2000/svg" viewBox="0 0 7.68 8.46"><defs><style>.cls-1{fill:#ff9d88;}</style></defs><title>Recurso 2</title><g id="Capa_2" data-name="Capa 2"><g id="Capa_1-2" data-name="Capa 1"><path class="cls-1" d="M1.28,0V.7H0V2.59a1.26,1.26,0,0,0,.43.9,3.18,3.18,0,0,0,1,.6h0A2.54,2.54,0,0,0,3,5.57v.62H2V7H1.27V8.46H6.42V7H5.69V6.19h-1V5.57A2.59,2.59,0,0,0,6.22,4.1h0a3.18,3.18,0,0,0,1-.6,1.29,1.29,0,0,0,.42-.9V.7H6.4V0Zm.53.53H5.87V.7h0V3.16A2,2,0,0,1,4.46,5.09l-.12,0a2.07,2.07,0,0,1-.5.06,2,2,0,0,1-.49-.06l-.12,0A2,2,0,0,1,1.81,3.16V.7h0Zm-1.28.7h.75V3.44A2,2,0,0,1,.8,3.1a.72.72,0,0,1-.27-.51Zm5.87,0h.76V2.59a.72.72,0,0,1-.27.51,2.2,2.2,0,0,1-.49.34V3.16h0Zm-2.56.18A1.06,1.06,0,1,0,4.9,2.47,1.07,1.07,0,0,0,3.84,1.41Zm0,.53A.53.53,0,1,1,3.84,3a.53.53,0,0,1,0-1.06ZM3.55,5.69a1.42,1.42,0,0,0,.29,0,1.51,1.51,0,0,0,.3,0v.5H3.55Zm-1,1H5.16V7H2.53Zm-.73.84H5.89v.38H1.8Z"/></g></g></svg>