<svg xmlns="http://www.w3.org/2000/svg" viewBox="0 0 1220.71 274.24"><defs><style>.cls-1{fill:#fff;}</style></defs><title>Recurso 2</title><g id="Capa_2" data-name="Capa 2"><g id="Capa_1-2" data-name="Capa 1"><path class="cls-1" d="M147.29,216.72c11,8.72,24.69,13.37,36,13.37,7.85,0,16-2,23.83-2,7.55,0,12.78,6.1,12.78,13.37,0,13.65-18.3,16-28.47,16-27.6,0-53.46-14.81-69.43-36.31a62.16,62.16,0,0,1-10.75.87C44.74,222,0,173.73,0,111S44.74,0,111.27,0,222.53,48.23,222.53,111C222.53,161.52,193.48,202.78,147.29,216.72Zm-36-197c-40.68,0-64.79,39.51-64.79,91.23S70.59,202.2,111,202.2c-4.36-9.3-7-23.24-7-29.64,0-7,1.75-15.68,9.59-15.68,16.56,0,3.78,18,17.72,41.54,28.47-11,44.74-45,44.74-87.44C176.05,59.26,151.94,19.75,111.27,19.75Z"/><path class="cls-1" d="M363.13,217.3c-14.52,0-15.68-4.94-17.43-18.3-12.49,13.07-29.92,21.21-48.22,21.21-33.7,0-47.65-21.5-47.65-47.94V112.72c0-20.63-13.36-11.62-13.36-22.66,0-9.3,34.86-14.53,39.22-14.53,7,0,11.91,3.49,11.91,21.5v68.85c0,26.44,6.39,32.83,23.24,32.83,16.27,0,32.54-10.46,32.54-26.73V112.72c0-20.63-13.36-11.62-13.36-22.66,0-9.3,34.86-14.53,39.22-14.53,7,0,11.91,3.49,11.91,21.5v92.09c0,16,14.81,12.5,14.81,20.34,0,4.36-2,7.84-10.75,7.84Z"/><path class="cls-1" d="M420.65,217.3c-7.55,0-10.75-2.9-10.75-7.84,0-11,13.66-2,13.66-21.21V129.57c0-33.41-19.47-20.92-19.47-33.41,0-8.43,8.72-10.17,16.85-14.24,6.1-2.9,16-6.39,20.05-6.39,12.78,0,14.81,24.7,15.69,34h.58c6.68-16,21.2-34,38.64-34,11.91,0,19.46,9,19.46,20.34,0,7.84-3.49,16.27-13.65,16.27-4.36,0-11.63-4.65-17.44-4.65-11.91,0-22.95,20.05-22.95,41.83v38.93c0,19.18,13.66,10.17,13.66,21.21,0,4.94-3.2,7.84-10.75,7.84Z"/><path class="cls-1" d="M533.08,217.3c-7.56,0-10.75-2.61-10.75-7.55,0-11,13.65-2,13.65-21.21V113.3c0-14.24-15.68-11-15.68-19.76,0-4.35,4.06-6.1,7.55-7,4.36-1.16,27.31-11,35.44-11,9,0,10.46,6.1,10.46,22.08v90.93c0,19.18,13.65,10.17,13.65,21.21,0,4.94-3.19,7.55-10.75,7.55ZM574.62,41.83c0,12.79-9.3,20.34-24.11,20.34-13.36,0-23-7.55-23-20.34,0-12.49,9.59-20.33,24.11-20.33C565.32,21.5,574.62,29.34,574.62,41.83Z"/><path class="cls-1" d="M677.75,220.21c-43.58,0-78.73-29.34-78.73-72.34s35.15-72.34,78.73-72.34,78.73,29.35,78.73,72.34S721.33,220.21,677.75,220.21Zm0-17.43c21.79,0,38.64-18.59,38.64-54.91S699.54,93,677.75,93s-38.64,18.6-38.64,54.91S656,202.78,677.75,202.78Z"/><path class="cls-1" d="M835.2,75.53c31.09,0,48.23,12.2,48.23,21.21,0,18.3-1.45,19.76-6.39,19.76C864.26,116.5,864.55,93,835.2,93,816.32,93,812,104.58,812,112.14c0,27.31,78.15,9.29,78.15,58.1,0,30.79-25.56,50-63.62,50-32.83,0-56.07-21.5-56.07-31.09,0-6.68,4.07-14.81,11.62-14.81,14.53,0,14.24,28.47,43.58,28.47,15.1,0,26.72-8.72,26.72-20.63,0-31.37-77-8.42-77-60.13C775.36,89.48,807,75.53,835.2,75.53Z"/><path class="cls-1" d="M913.64,217.3c-7.55,0-10.75-2.61-10.75-7.55,0-11,13.66-2,13.66-21.21V113.3c0-14.24-15.69-11-15.69-19.76,0-4.35,4.07-6.1,7.55-7,4.36-1.16,27.31-11,35.44-11,9,0,10.46,6.1,10.46,22.08v90.93c0,19.18,13.66,10.17,13.66,21.21,0,4.94-3.2,7.55-10.75,7.55ZM955.18,41.83c0,12.79-9.29,20.34-24.11,20.34-13.36,0-23-7.55-23-20.34,0-12.49,9.59-20.33,24.11-20.33C945.89,21.5,955.18,29.34,955.18,41.83Z"/><path class="cls-1" d="M1058,78.44c6.68,0,11,2.32,11,9.29,0,7.27-4.36,9.3-11,9.3H1034.2v84.25c0,13.65,4.65,17.43,19.46,17.43,13.37,0,16.85,2,16.85,8.43,0,7-3.19,10.16-10.16,10.16h-41.26c-18.59,0-22.66-3.19-22.66-18.88V97H984.52c-8.42,0-11-2-11-9.3,0-7,5.52-8.42,16.27-9.29,33.12-3.2,23.53-50.55,36.9-50.55,6.1,0,7.55,2.9,7.55,11.62V78.44Z"/><path class="cls-1" d="M1122.51,78.44c6.1,0,9,2.61,9,7.55,0,7.85-10.17,4.07-10.17,21.5,0,24.69,12.78,86.57,34.86,86.57,18.6,0,28.47-69.72,28.47-87.15,0-14-16.26-13.37-16.26-22.66,0-3.49,1.74-5.81,6.39-5.81h37.76c5.81,0,8.14,2.61,8.14,6.1,0,8.71-11.91,6.1-14.53,27-9.88,77.85-46.48,162.68-100.81,162.68-9.58,0-25.85-4.35-25.85-15.1,0-9.3,6.39-13.95,17.43-13.95,8.13,0,15.4,4.65,21.21,4.65,10.75,0,30.79-19.17,38.63-38.64-4.35,1.45-8.71,2.62-11,2.62-53.74,0-60.42-83.38-65.65-113.59-1.74-9.3-9.3-7.56-9.3-14.53,0-4.65,2.33-7.26,9-7.26Z"/></g></g></svg>